# xmcd
#
# Track frame offsets:
#	150
#	4188
#	10073
#	22116
#	34983
#	43123
#	54558
#	68970
#	74171
#	83377
#	96651
#	100502
#	110092
#	115366
#	127385
#	135665
#	145780
#	152400
#	164548
#	179592
#	182859
#	196518
#	212321
#
# Disc length: 2970 seconds
#
# Revision: 1
# Processed by: cddbd v1.5.2PL0 Copyright (c) Steve Scherf et al.
# Submitted via: audiograbber 1.83.01
#
DISCID=4c0b9817
DTITLE=Gilberto Gaspar - Nos braços do sol
DYEAR=2008
DGENRE=Seresta
TTITLE0=A voz e o violão
TTITLE1=O enterrado vivo
TTITLE2=Janela da saudade
TTITLE3=Reminiscências
TTITLE4=Diálogo das Rosas
TTITLE5=Serenata
TTITLE6=Vulto de mulher
TTITLE7=Se lembrares...
TTITLE8=Pintor da natureza
TTITLE9=Saudação
TTITLE10=Espera
TTITLE11=A mão do tempo
TTITLE12=Não pises a flor
TTITLE13=Bem vestida
TTITLE14=Branca flor da minha vida
TTITLE15=Mensagem
TTITLE16=O menino e a carrocinha
TTITLE17=Amor não entra
TTITLE18=Vem!
TTITLE19=O assalto
TTITLE20=Nos braços do sol
TTITLE21=Canto de luz
TTITLE22=Parecer
EXTD=
EXTT0=
EXTT1=
EXTT2=
EXTT3=
EXTT4=
EXTT5=
EXTT6=
EXTT7=
EXTT8=
EXTT9=
EXTT10=
EXTT11=
EXTT12=
EXTT13=
EXTT14=
EXTT15=
EXTT16=
EXTT17=
EXTT18=
EXTT19=
EXTT20=
EXTT21=
EXTT22=
PLAYORDER=
